<?xml version="1.0" encoding="UTF-8"?>
<!DOCTYPE svg PUBLIC "-//W3C//DTD SVG 1.1//EN" "http://www.w3.org/Graphics/SVG/1.1/DTD/svg11.dtd">
<svg xmlns="http://www.w3.org/2000/svg" version="1.1" width="225px" height="225px" style="shape-rendering:geometricPrecision; text-rendering:geometricPrecision; image-rendering:optimizeQuality; fill-rule:evenodd; clip-rule:evenodd" xmlns:xlink="http://www.w3.org/1999/xlink">
<g><path style="opacity:0.267" fill="#b2be6d" d="M 96.5,6.5 C 92.0604,12.2784 86.7271,16.9451 80.5,20.5C 85.5315,15.4672 90.8648,10.8005 96.5,6.5 Z"/></g>
<g><path style="opacity:1" fill="#a2bc30" d="M 103.5,-0.5 C 107.833,-0.5 112.167,-0.5 116.5,-0.5C 121.5,4.16667 126.5,8.83333 131.5,13.5C 131.281,14.675 131.614,15.675 132.5,16.5C 136.321,17.9805 138.655,20.6472 139.5,24.5C 140.552,24.3505 141.552,24.5172 142.5,25C 144.667,27.8333 146.833,30.6667 149,33.5C 150.168,39.4316 149.335,40.2649 146.5,36C 145.668,35.3123 145.002,35.479 144.5,36.5C 145.309,38.0709 145.643,39.7376 145.5,41.5C 146.822,41.33 147.989,41.6634 149,42.5C 149.44,44.0762 150.273,45.4096 151.5,46.5C 150.572,47.7678 150.405,49.1011 151,50.5C 151.333,50.1667 151.667,49.8333 152,49.5C 154.083,53.6704 157.083,57.0038 161,59.5C 161.847,62.4904 160.68,63.8238 157.5,63.5C 157.617,61.5165 156.95,59.8498 155.5,58.5C 153.582,60.4158 151.748,62.4158 150,64.5C 149.326,61.74 148.493,59.0733 147.5,56.5C 147.756,54.2075 147.423,52.0408 146.5,50C 143.792,49.149 141.292,48.649 139,48.5C 137.549,51.2644 135.383,53.2644 132.5,54.5C 127.097,55.754 122.097,57.754 117.5,60.5C 114.111,60.3679 110.777,60.2012 107.5,60C 105.421,61.6398 103.088,62.8064 100.5,63.5C 99.4264,68.2172 96.4264,70.8839 91.5,71.5C 88.488,71.8213 87.1547,70.488 87.5,67.5C 84.8316,67.6663 82.4983,68.6663 80.5,70.5C 79.8409,73.1591 78.1743,74.8257 75.5,75.5C 72.9262,78.3653 72.9262,81.1986 75.5,84C 77.476,84.1878 79.476,84.0212 81.5,83.5C 83.6931,83.7186 85.6931,84.3852 87.5,85.5C 88.6053,87.7131 88.6053,89.8797 87.5,92C 92.3833,94.9409 97.3833,97.6075 102.5,100C 113.577,103.494 124.577,103.327 135.5,99.5C 137.103,99.3118 138.437,99.8118 139.5,101C 137.527,101.495 135.527,101.662 133.5,101.5C 133.683,103.988 134.683,105.988 136.5,107.5C 132.482,108.292 128.482,109.459 124.5,111C 123.748,111.671 123.414,112.504 123.5,113.5C 121.073,113.523 118.74,114.023 116.5,115C 114.615,117.222 112.449,119.056 110,120.5C 108.594,119.586 107.094,118.92 105.5,118.5C 105.141,116.629 104.141,115.129 102.5,114C 102.833,113.667 103.167,113.333 103.5,113C 100.258,112.717 99.9244,111.883 102.5,110.5C 91.4725,107.061 80.4725,107.228 69.5,111C 67.7605,112.517 66.0938,114.017 64.5,115.5C 55.9761,119.681 50.1427,126.348 47,135.5C 45.767,144.502 46.767,153.169 50,161.5C 50.7403,163.319 51.9069,164.652 53.5,165.5C 61.7946,176.795 71.4613,186.795 82.5,195.5C 83.164,198.015 84.4974,200.181 86.5,202C 91.322,204.248 95.6554,207.248 99.5,211C 95.1667,211.333 90.8333,211.667 86.5,212C 85.2625,212.232 84.2625,212.732 83.5,213.5C 82.609,212.89 81.609,212.557 80.5,212.5C 64.0311,210.818 47.3644,210.151 30.5,210.5C 29.5423,209.038 28.3756,207.705 27,206.5C 26.5045,204.527 26.3379,202.527 26.5,200.5C 26.6666,169.498 26.5,138.498 26,107.5C 22.8365,106.081 19.8365,106.415 17,108.5C 16.5172,109.448 16.3505,110.448 16.5,111.5C 13.4682,111.505 10.4682,111.838 7.5,112.5C 5.16946,110.521 2.50279,109.188 -0.5,108.5C -0.5,103.167 -0.5,97.8333 -0.5,92.5C 1.90241,90.0908 4.56908,88.0908 7.5,86.5C 17.2745,78.5669 26.9412,70.4003 36.5,62C 38.4641,60.549 39.7974,58.7157 40.5,56.5C 42.2193,53.7805 44.5526,51.7805 47.5,50.5C 58.1026,42.234 68.1026,33.234 77.5,23.5C 78.1667,22.1667 79.1667,21.1667 80.5,20.5C 86.7271,16.9451 92.0604,12.2784 96.5,6.5C 98.5272,3.80614 100.861,1.47281 103.5,-0.5 Z"/></g>
<g><path style="opacity:0.267" fill="#aeb968" d="M 77.5,23.5 C 68.1026,33.234 58.1026,42.234 47.5,50.5C 56.8974,40.766 66.8974,31.766 77.5,23.5 Z"/></g>
<g><path style="opacity:1" fill="#a2bc31" d="M 131.5,13.5 C 159.859,38.862 188.192,64.1953 216.5,89.5C 218.842,93.7017 220.509,98.2017 221.5,103C 218.148,110.229 212.481,113.229 204.5,112C 201.62,108.56 197.953,106.727 193.5,106.5C 193.979,140.229 193.479,173.896 192,207.5C 190.59,208.787 189.09,209.954 187.5,211C 165.159,211.833 142.826,211.666 120.5,210.5C 121.32,208.889 122.654,208.222 124.5,208.5C 124.5,207.5 124.5,206.5 124.5,205.5C 132.142,199.531 139.809,193.531 147.5,187.5C 149.124,187.36 150.29,188.027 151,189.5C 152.628,187.347 153.961,185.013 155,182.5C 156.481,185.064 157.981,185.064 159.5,182.5C 158.624,181.749 157.624,181.249 156.5,181C 159.365,178.482 162.531,176.315 166,174.5C 167.333,175.167 168.667,175.833 170,176.5C 170.5,176.167 171,175.833 171.5,175.5C 170.167,173.5 168.833,171.5 167.5,169.5C 168.376,167.124 170.042,165.624 172.5,165C 171.422,164.326 170.755,163.326 170.5,162C 172.755,156.226 174.088,150.226 174.5,144C 173.249,139.494 172.082,134.994 171,130.5C 170.617,131.056 170.117,131.389 169.5,131.5C 168.833,131.5 168.5,131.167 168.5,130.5C 169.043,130.44 169.376,130.107 169.5,129.5C 167.643,124.475 164.477,120.475 160,117.5C 159.517,116.552 159.351,115.552 159.5,114.5C 158.022,114.762 156.689,114.429 155.5,113.5C 152.868,112.109 150.535,110.276 148.5,108C 144.479,108.614 140.479,108.447 136.5,107.5C 134.683,105.988 133.683,103.988 133.5,101.5C 135.527,101.662 137.527,101.495 139.5,101C 138.437,99.8118 137.103,99.3118 135.5,99.5C 136.315,98.1634 137.482,97.1634 139,96.5C 139.667,95.5 139.667,94.5 139,93.5C 132.919,92.0449 127.086,89.8783 121.5,87C 120.257,85.184 120.59,83.684 122.5,82.5C 127.602,81.944 132.269,80.2773 136.5,77.5C 142.425,76.1487 144.092,72.9821 141.5,68C 143.672,64.1527 145.672,60.3193 147.5,56.5C 148.493,59.0733 149.326,61.74 150,64.5C 151.748,62.4158 153.582,60.4158 155.5,58.5C 156.95,59.8498 157.617,61.5165 157.5,63.5C 160.68,63.8238 161.847,62.4904 161,59.5C 157.083,57.0038 154.083,53.6704 152,49.5C 151.667,49.8333 151.333,50.1667 151,50.5C 150.405,49.1011 150.572,47.7678 151.5,46.5C 150.273,45.4096 149.44,44.0762 149,42.5C 147.989,41.6634 146.822,41.33 145.5,41.5C 145.643,39.7376 145.309,38.0709 144.5,36.5C 145.002,35.479 145.668,35.3123 146.5,36C 149.335,40.2649 150.168,39.4316 149,33.5C 146.833,30.6667 144.667,27.8333 142.5,25C 141.552,24.5172 140.552,24.3505 139.5,24.5C 138.655,20.6472 136.321,17.9805 132.5,16.5C 131.614,15.675 131.281,14.675 131.5,13.5 Z"/></g>
<g><path style="opacity:0.969" fill="#9fae44" d="M 147.5,56.5 C 145.672,60.3193 143.672,64.1527 141.5,68C 144.092,72.9821 142.425,76.1487 136.5,77.5C 138.002,75.825 139.335,73.9917 140.5,72C 139.426,71.2613 138.759,70.2613 138.5,69C 142.558,64.2831 144.558,58.7831 144.5,52.5C 135.517,55.1604 126.517,57.827 117.5,60.5C 122.097,57.754 127.097,55.754 132.5,54.5C 135.383,53.2644 137.549,51.2644 139,48.5C 141.292,48.649 143.792,49.149 146.5,50C 147.423,52.0408 147.756,54.2075 147.5,56.5 Z"/></g>
<g><path style="opacity:1" fill="#a1b33b" d="M 117.5,60.5 C 108.831,63.0103 102.164,68.177 97.5,76C 93.2217,75.9574 89.055,75.124 85,73.5C 73.5028,77.0294 73.6695,80.1961 85.5,83C 86.3805,83.7083 87.0472,84.5416 87.5,85.5C 85.6931,84.3852 83.6931,83.7186 81.5,83.5C 79.476,84.0212 77.476,84.1878 75.5,84C 72.9262,81.1986 72.9262,78.3653 75.5,75.5C 78.1743,74.8257 79.8409,73.1591 80.5,70.5C 82.4983,68.6663 84.8316,67.6663 87.5,67.5C 87.1547,70.488 88.488,71.8213 91.5,71.5C 96.4264,70.8839 99.4264,68.2172 100.5,63.5C 103.088,62.8064 105.421,61.6398 107.5,60C 110.777,60.2012 114.111,60.3679 117.5,60.5 Z"/></g>
<g><path style="opacity:0.282" fill="#afbb64" d="M 40.5,56.5 C 39.7974,58.7157 38.4641,60.549 36.5,62C 26.9412,70.4003 17.2745,78.5669 7.5,86.5C 17.8758,75.7898 28.8758,65.7898 40.5,56.5 Z"/></g>
<g><path style="opacity:0.971" fill="#9eae47" d="M 122.5,82.5 C 120.59,83.684 120.257,85.184 121.5,87C 127.086,89.8783 132.919,92.0449 139,93.5C 139.667,94.5 139.667,95.5 139,96.5C 137.482,97.1634 136.315,98.1634 135.5,99.5C 124.577,103.327 113.577,103.494 102.5,100C 97.3833,97.6075 92.3833,94.9409 87.5,92C 88.6053,89.8797 88.6053,87.7131 87.5,85.5C 101.946,99.7226 118.613,103.056 137.5,95.5C 130.096,93.8816 123.596,90.5482 118,85.5C 117.517,84.552 117.351,83.552 117.5,82.5C 119.167,82.5 120.833,82.5 122.5,82.5 Z"/></g>
<g><path style="opacity:0.994" fill="#a0b13e" d="M 105.5,118.5 C 92.4741,109.308 78.8075,108.308 64.5,115.5C 66.0938,114.017 67.7605,112.517 69.5,111C 80.4725,107.228 91.4725,107.061 102.5,110.5C 99.9244,111.883 100.258,112.717 103.5,113C 103.167,113.333 102.833,113.667 102.5,114C 104.141,115.129 105.141,116.629 105.5,118.5 Z"/></g>
<g><path style="opacity:1" fill="#a4b244" d="M 136.5,107.5 C 140.479,108.447 144.479,108.614 148.5,108C 150.535,110.276 152.868,112.109 155.5,113.5C 156.689,114.429 158.022,114.762 159.5,114.5C 159.351,115.552 159.517,116.552 160,117.5C 164.477,120.475 167.643,124.475 169.5,129.5C 169.376,130.107 169.043,130.44 168.5,130.5C 158.093,112.807 143.093,107.141 123.5,113.5C 123.414,112.504 123.748,111.671 124.5,111C 128.482,109.459 132.482,108.292 136.5,107.5 Z"/></g>
<g><path style="opacity:0.4" fill="#98a34c" d="M 123.5,113.5 C 118.915,116.23 114.415,119.23 110,122.5C 108.02,121.685 106.52,120.352 105.5,118.5C 107.094,118.92 108.594,119.586 110,120.5C 112.449,119.056 114.615,117.222 116.5,115C 118.74,114.023 121.073,113.523 123.5,113.5 Z"/></g>
<g><path style="opacity:0.523" fill="#9dac4a" d="M 64.5,115.5 C 47.4176,129.011 43.7509,145.677 53.5,165.5C 51.9069,164.652 50.7403,163.319 50,161.5C 46.767,153.169 45.767,144.502 47,135.5C 50.1427,126.348 55.9761,119.681 64.5,115.5 Z"/></g>
<g><path style="opacity:0.592" fill="#9caa37" d="M 26.5,200.5 C 25.8333,169.833 25.1667,139.167 24.5,108.5C 22.0948,109.398 20.0948,110.898 18.5,113C 11.2702,116.758 4.93689,115.591 -0.5,109.5C -0.5,109.167 -0.5,108.833 -0.5,108.5C 2.50279,109.188 5.16946,110.521 7.5,112.5C 10.4682,111.838 13.4682,111.505 16.5,111.5C 16.3505,110.448 16.5172,109.448 17,108.5C 19.8365,106.415 22.8365,106.081 26,107.5C 26.5,138.498 26.6666,169.498 26.5,200.5 Z"/></g>
<g><path style="opacity:1" fill="#a2b53d" d="M 147.5,187.5 C 151.13,183.369 154.963,179.369 159,175.5C 170.366,162.704 173.866,148.038 169.5,131.5C 170.117,131.389 170.617,131.056 171,130.5C 172.082,134.994 173.249,139.494 174.5,144C 174.088,150.226 172.755,156.226 170.5,162C 170.755,163.326 171.422,164.326 172.5,165C 170.042,165.624 168.376,167.124 167.5,169.5C 168.833,171.5 170.167,173.5 171.5,175.5C 171,175.833 170.5,176.167 170,176.5C 168.667,175.833 167.333,175.167 166,174.5C 162.531,176.315 159.365,178.482 156.5,181C 157.624,181.249 158.624,181.749 159.5,182.5C 157.981,185.064 156.481,185.064 155,182.5C 153.961,185.013 152.628,187.347 151,189.5C 150.29,188.027 149.124,187.36 147.5,187.5 Z"/></g>
<g><path style="opacity:0.071" fill="#abb562" d="M 24.5,108.5 C 25.1667,139.167 25.8333,169.833 26.5,200.5C 26.3379,202.527 26.5045,204.527 27,206.5C 28.3756,207.705 29.5423,209.038 30.5,210.5C 30.5,210.833 30.5,211.167 30.5,211.5C 27.2652,210.405 25.4318,208.072 25,204.5C 24.5,172.502 24.3334,140.502 24.5,108.5 Z"/></g>
<g><path style="opacity:0.873" fill="#9eaa3f" d="M 30.5,210.5 C 47.3644,210.151 64.0311,210.818 80.5,212.5C 70.165,212.716 59.8316,213.049 49.5,213.5C 42.9201,213.716 36.5868,213.049 30.5,211.5C 30.5,211.167 30.5,210.833 30.5,210.5 Z"/></g>
<g><path style="opacity:0.46" fill="#9ba544" d="M 82.5,195.5 C 89.0085,200.502 95.6752,205.335 102.5,210C 103.337,211.011 103.67,212.178 103.5,213.5C 96.8333,213.5 90.1667,213.5 83.5,213.5C 84.2625,212.732 85.2625,212.232 86.5,212C 90.8333,211.667 95.1667,211.333 99.5,211C 95.6554,207.248 91.322,204.248 86.5,202C 84.4974,200.181 83.164,198.015 82.5,195.5 Z"/></g>
<g><path style="opacity:0.328" fill="#9da949" d="M 216.5,89.5 C 219.936,91.9292 222.603,94.9292 224.5,98.5C 224.5,100.167 224.5,101.833 224.5,103.5C 217.131,116.14 207.798,117.807 196.5,108.5C 195.667,140.828 195.167,173.162 195,205.5C 194.214,208.583 192.381,210.749 189.5,212C 165.187,213.327 140.854,213.827 116.5,213.5C 116.351,212.448 116.517,211.448 117,210.5C 119.443,208.699 121.943,207.032 124.5,205.5C 124.5,206.5 124.5,207.5 124.5,208.5C 122.654,208.222 121.32,208.889 120.5,210.5C 142.826,211.666 165.159,211.833 187.5,211C 189.09,209.954 190.59,208.787 192,207.5C 193.479,173.896 193.979,140.229 193.5,106.5C 197.953,106.727 201.62,108.56 204.5,112C 212.481,113.229 218.148,110.229 221.5,103C 220.509,98.2017 218.842,93.7017 216.5,89.5 Z"/></g>
</svg>